# xmcd CD database file
#
# Track frame offsets:
#	150
#	21933
#	37691
#	63840
#	87740
#	112943
#	135757
#	152382
#	174629
#	197946
#	214886
#	228808
#	242508
#	266287
#	293695
#	306949
#	327138
#
# Disc length: 4723 seconds
#
# Revision: 0
# Processed by: cddbd v1.5.2PL0 Copyright (c) Steve Scherf et al.
# Submitted via: CDex 1.51
#
DISCID=d7127111
DTITLE=Piano Jazz - Piano Jazz
DYEAR=2008
DGENRE=Jazz
TTITLE0=Jamie Cullum - High and dry
TTITLE1=Rigmor Gustafsson and Jacky Terrasson trio - World of my dreams
TTITLE2=Michel Petrucciani - Why
TTITLE3=Kenny Barron - Scratch
TTITLE4=Esbjörn Svensson Trio - A picture of Doris travelling with Boris
TTITLE5=Sun Ra - Celestial road
TTITLE6=Bugge Wesseltoft - Greensleeves
TTITLE7=Tigran Hamasyan - Leaving Paris
TTITLE8=Avishai Cohen - Remembering
TTITLE9=Pat Moran Quartet - Jor-Du
TTITLE10=Theolonious Monk - Monk's dream
TTITLE11=Claude Williamson - Hippy
TTITLE12=Martial Solal - Que reste-t-il de nos amours ?
TTITLE13=Antoine Herve - Summertime
TTITLE14=Tommy Flanagan - Goodnight my Love (Live)
TTITLE15=Christian Prommer's Drumlesson - Strings of life
TTITLE16=Craig Armstrong - Weather storm
EXTD=YEAR: 2008
EXTT0=
EXTT1=
EXTT2=
EXTT3=
EXTT4=
EXTT5=
EXTT6=
EXTT7=
EXTT8=
EXTT9=
EXTT10=
EXTT11=
EXTT12=
EXTT13=
EXTT14=
EXTT15=
EXTT16=
PLAYORDER=
